<svg viewBox="0 0 1182 1182" xmlns="http://www.w3.org/2000/svg" fill-rule="evenodd" clip-rule="evenodd" stroke-linejoin="round" stroke-miterlimit="2"><path d="M448.481 339.187H5.49C87.558 166.41 252.232 40.48 448.48 12.41a587.114 587.114 0 0183.168-5.894c232.24 0 432.714 135.978 526.159 332.67H864.35C788.486 238.179 667.698 172.853 531.65 172.853c-28.482 0-56.3 2.864-83.168 8.315v158.02z" fill="#fbb900" fill-rule="nonzero"/><path d="M614.812 838.205h442.991c-82.076 172.775-246.742 298.706-442.991 326.776a587.114 587.114 0 01-83.168 5.895c-232.248 0-432.722-135.986-526.159-332.671h193.457c75.857 101 196.653 166.327 332.702 166.327 28.482 0 56.292-2.856 83.168-8.307v-158.02z" fill="#64b32e" fill-rule="nonzero"/><path d="M5.489 415.12h281.68v69.385L116.846 687.669H293.38v74.592H5.489V690.28l168.535-201.044H5.489V415.12zM481.88 555.773h39.518c4.273 0 12.564-1.574 24.843-4.73 6.203-1.425 11.274-5.056 15.214-10.895 3.932-5.839 5.895-12.548 5.895-20.128 0-11.21-3.102-19.802-9.32-25.807-6.203-6.005-17.865-8.996-34.97-8.996h-41.18v70.556zm-94.173 206.488V415.119h156.256c28.964 0 51.125 2.84 66.434 8.521 15.317 5.689 27.66 16.227 37.043 31.615 9.375 15.397 14.082 34.14 14.082 56.237 0 19.265-3.591 35.88-10.767 49.851-7.184 13.964-17.066 25.302-29.622 33.98-7.998 5.523-18.98 10.104-32.92 13.736 11.163 4.272 19.296 8.536 24.4 12.8 3.457 2.841 8.449 8.925 15 18.253 6.55 9.312 10.934 16.512 13.133 21.567l45.406 100.582H580.214l-50.12-106.08c-6.354-13.735-12.01-22.644-16.963-26.758-6.773-5.364-14.423-8.054-22.984-8.054h-8.267v140.892h-94.173zM767.642 415.12h87.543l114.237 192.056V415.119h88.381v347.142h-88.381L855.81 571.66v190.6h-88.168V415.119zM1135.464 379.873h7.058c3.37 0 5.664-.499 6.899-1.511 1.226-1.005 1.843-2.334 1.843-3.996 0-1.06-.3-2.017-.886-2.864-.594-.838-1.416-1.471-2.469-1.883-1.052-.411-2.998-.625-5.83-.625h-6.615v10.879zm-5.815 20.285v-36.045h12.382c4.225 0 7.295.34 9.185 1.004a8.915 8.915 0 014.526 3.482c1.123 1.661 1.685 3.417 1.685 5.285 0 2.634-.933 4.92-2.816 6.875-1.875 1.954-4.368 3.054-7.477 3.283 1.274.538 2.294 1.171 3.062 1.915 1.448 1.416 3.228 3.805 5.324 7.144l4.4 7.057h-7.105l-3.197-5.68c-2.508-4.47-4.541-7.263-6.076-8.387-1.068-.83-2.627-1.25-4.66-1.25h-3.418v15.317h-5.815zm14.692-46.473c-4.707 0-9.288 1.21-13.734 3.616-4.463 2.413-7.944 5.862-10.46 10.348-2.516 4.478-3.774 9.146-3.774 14.004 0 4.818 1.235 9.439 3.711 13.87 2.468 4.422 5.926 7.871 10.356 10.34 4.447 2.468 9.075 3.702 13.901 3.702 4.818 0 9.447-1.234 13.893-3.702 4.43-2.469 7.88-5.918 10.34-10.34 2.453-4.431 3.68-9.052 3.68-13.87 0-4.858-1.25-9.526-3.743-14.004-2.508-4.486-5.989-7.935-10.459-10.348-4.47-2.405-9.035-3.616-13.71-3.616m0-5.546c5.617 0 11.107 1.44 16.463 4.328 5.357 2.88 9.526 7.01 12.517 12.381 2.99 5.373 4.486 10.974 4.486 16.805 0 5.768-1.472 11.314-4.423 16.638-2.943 5.325-7.073 9.463-12.374 12.406-5.317 2.95-10.878 4.422-16.67 4.422-5.8 0-11.353-1.471-16.67-4.422-5.308-2.943-9.446-7.081-12.405-12.406-2.96-5.324-4.439-10.87-4.439-16.638 0-5.831 1.504-11.432 4.502-16.805 3.006-5.372 7.184-9.501 12.54-12.381 5.356-2.888 10.847-4.328 16.472-4.328" fill="#012850" fill-rule="nonzero"/></svg>